HIERARCHY
ROOT Hips
{
 OFFSET 0.000000 0.000000 0.000000
 CHANNELS 6 Xposition Yposition Zposition Yrotation Xrotation Zrotation
 JOINT Chest
 {
  OFFSET 0.000000 9.585900 0.002600
  CHANNELS 3 Yrotation Xrotation Zrotation
  JOINT Chest2
  {
   OFFSET 0.000000 9.601200 -0.005300
   CHANNELS 3 Yrotation Xrotation Zrotation
   JOINT Chest3
   {
    OFFSET 0.000000 9.561800 0.000000
    CHANNELS 3 Yrotation Xrotation Zrotation
    JOINT Chest4
    {
     OFFSET 0.000000 9.552100 0.000000
     CHANNELS 3 Yrotation Xrotation Zrotation
     JOINT Neck
     {
      OFFSET 0.000000 14.453000 0.000000
      CHANNELS 3 Yrotation Xrotation Zrotation
      JOINT Head
      {
       OFFSET 0.000000 8.936500 -0.011300
       CHANNELS 3 Yrotation Xrotation Zrotation
       End Site
       {
        OFFSET 0.000000 17.073600 -0.006000
       }
      }
     }
     JOINT RightCollar
     {
      OFFSET -2.921100 9.558500 0.000000
      CHANNELS 3 Yrotation Xrotation Zrotation
      JOINT RightShoulder
      {
       OFFSET -13.519700 0.000000 0.000000
       CHANNELS 3 Yrotation Xrotation Zrotation
       JOINT RightElbow
       {
        OFFSET 0.000000 -29.696600 0.000000
        CHANNELS 3 Yrotation Xrotation Zrotation
        JOINT RightWrist
        {
         OFFSET 0.000000 -24.004700 0.000000
         CHANNELS 3 Yrotation Xrotation Zrotation
         End Site
         {
          OFFSET 0.000000 -17.728500 0.000000
         }
        }
       }
      }
     }
     JOINT LeftCollar
     {
      OFFSET 2.921100 9.558500 0.000000
      CHANNELS 3 Yrotation Xrotation Zrotation
      JOINT LeftShoulder
      {
       OFFSET 13.519700 0.000000 0.000000
       CHANNELS 3 Yrotation Xrotation Zrotation
       JOINT LeftElbow
       {
        OFFSET 0.000000 -29.696600 0.000000
        CHANNELS 3 Yrotation Xrotation Zrotation
        JOINT LeftWrist
        {
         OFFSET 0.000000 -24.004700 0.000000
         CHANNELS 3 Yrotation Xrotation Zrotation
         End Site
         {
          OFFSET 0.000000 -17.728500 0.000000
         }
        }
       }
      }
     }
    }
   }
  }
 }
 JOINT RightHip
 {
  OFFSET -7.771700 -0.012900 -0.001300
  CHANNELS 3 Yrotation Xrotation Zrotation
  JOINT RightKnee
  {
   OFFSET 0.000000 -40.869800 0.001200
   CHANNELS 3 Yrotation Xrotation Zrotation
   JOINT RightAnkle
   {
    OFFSET 0.000000 -39.717900 0.002100
    CHANNELS 3 Yrotation Xrotation Zrotation
    JOINT RightToe
    {
     OFFSET 0.000000 -4.965400 11.033500
     CHANNELS 3 Yrotation Xrotation Zrotation
     End Site
     {
      OFFSET 0.000000 -1.423100 5.872300
     }
    }
   }
  }
 }
 JOINT LeftHip
 {
  OFFSET 7.771700 -0.012900 -0.001300
  CHANNELS 3 Yrotation Xrotation Zrotation
  JOINT LeftKnee
  {
   OFFSET 0.000000 -40.869800 0.001200
   CHANNELS 3 Yrotation Xrotation Zrotation
   JOINT LeftAnkle
   {
    OFFSET 0.000000 -39.717900 0.002100
    CHANNELS 3 Yrotation Xrotation Zrotation
    JOINT LeftToe
    {
     OFFSET 0.000000 -4.965400 11.033500
     CHANNELS 3 Yrotation Xrotation Zrotation
     End Site
     {
      OFFSET 0.000000 -1.423100 5.872300
     }
    }
   }
  }
 }
}
MOTION
Frames: 14
Frame Time: 0.008333
0.000000 85.388000 0.000000 0.000000 -5.767877 0.000000 0.000000 11.653817 0.000000 0.000000 -5.885947 0.000000 0.000000 -0.000000 0.000000 0.000000 -0.000000 0.000000 0.000000 12.528835 0.000000 0.000000 0.711642 0.000000 0.000000 -0.000000 0.000000 0.000000 0.000000 -90.000000 0.000000 -2.309062 0.000000 0.000000 2.309062 0.000000 0.000000 -0.000000 0.000000 0.000000 -0.000000 90.000000 0.000000 -2.309062 0.000000 0.000000 2.309062 0.000000 0.000000 8.520406 0.000000 0.000000 1.905762 0.000000 -0.000000 -4.658285 0.000000 0.000000 -0.000000 0.000000 0.000000 8.520406 0.000000 0.000000 1.905762 0.000000 -0.000000 -4.658285 0.000000 0.000000 -0.000000 0.000000
-2.705226 52.184576 33.359349 170.069420 -38.223947 -1.978870 4.464903 23.208354 2.782178 0.550056 3.545866 0.511043 0.878158 5.613126 0.829701 3.511979 19.435317 3.360130 2.681043 15.300176 -0.540246 5.205434 -7.311999 -1.993971 -3.172864 -1.085449 -2.668116 7.575991 -21.965778 1.935389 126.269486 -67.738884 -115.297893 6.342258 -23.099102 -28.103674 -9.049088 0.848152 0.239828 -1.815131 -24.181600 5.500588 -140.967324 -64.362199 135.405933 -8.118073 -28.767360 29.049642 -0.712600 -43.299195 1.978961 -144.541356 84.452884 -140.396157 -0.061998 -11.671210 -0.998975 0.742684 -1.047456 0.330858 1.045106 -39.431647 6.741828 71.835120 83.924639 61.738508 -5.514108 -13.287151 10.017880 0.274479 1.512869 0.146948
-2.706720 52.179427 33.358257 170.061019 -38.240166 -1.972563 4.493903 23.283474 2.797726 0.546260 3.570020 0.511888 0.886045 5.653553 0.832764 3.527899 19.493740 3.361520 2.666475 15.278348 -0.572360 5.190934 -7.351496 -2.049569 -3.109108 -1.120070 -2.646077 7.739977 -22.411019 1.894893 125.430284 -67.876191 -114.624075 6.285946 -23.049628 -28.062230 -9.170106 0.837511 0.304046 -1.977449 -24.525358 5.615206 -140.326328 -64.672974 134.889752 -8.150326 -28.643646 29.080489 -0.704703 -43.291996 1.968163 -144.780285 84.455813 -140.623655 -0.058237 -11.664504 -1.019913 0.732953 -1.055081 0.336451 1.064790 -39.421894 6.719378 71.931481 83.915258 61.854056 -5.516887 -13.289939 9.999541 0.277169 1.514458 0.154323
-2.707723 52.175755 33.353751 170.035288 -38.284818 -1.957421 4.532066 23.440464 2.820346 0.544715 3.540854 0.507772 0.893314 5.695176 0.834877 3.540908 19.554194 3.359057 2.654577 15.252582 -0.602558 5.180879 -7.398356 -2.102849 -3.035246 -1.152704 -2.621471 7.897679 -22.848324 1.846268 124.601674 -68.044813 -113.953373 6.231570 -22.967128 -28.013427 -9.283291 0.824307 0.359209 -2.099213 -24.851320 5.718517 -139.655243 -64.879171 134.343696 -8.214006 -28.549175 29.123086 -0.684286 -43.252006 1.964267 -145.018471 84.464906 -140.853248 -0.065922 -11.669909 -1.033373 0.727548 -1.052027 0.338421 1.093573 -39.383790 6.697328 72.076187 83.904074 62.017574 -5.507181 -13.281650 9.979304 0.270288 1.498915 0.158563
-2.712029 52.169802 33.350166 170.004282 -38.318664 -1.923198 4.555224 23.531714 2.815002 0.549280 3.567845 0.508850 0.900334 5.736056 0.836513 3.553090 19.613538 3.355183 2.644170 15.226720 -0.630227 5.172635 -7.445508 -2.151868 -2.957197 -1.182096 -2.592081 8.053693 -23.274286 1.787731 123.781267 -68.249561 -113.285632 6.217286 -22.860973 -27.974513 -9.390576 0.814233 0.404707 -2.183723 -25.163107 5.815891 -139.000564 -65.001299 133.802949 -8.287255 -28.472734 29.178289 -0.643360 -43.228570 1.938731 -145.273033 84.467388 -141.102710 -0.073722 -11.677093 -1.041482 0.727572 -1.044853 0.338960 1.130099 -39.358703 6.632336 72.314680 83.867376 62.278701 -5.458383 -13.278570 9.961349 0.237028 1.486300 0.138675
-2.713831 52.163355 33.347030 169.973726 -38.352582 -1.907281 4.588498 23.618090 2.828434 0.554038 3.593477 0.509718 0.907725 5.774787 0.837802 3.566889 19.669397 3.350904 2.633724 15.205745 -0.653270 5.161479 -7.515134 -2.182951 -2.882088 -1.205636 -2.555421 8.207737 -23.685251 1.723206 122.911594 -68.443633 -112.567591 6.184248 -22.730466 -27.938919 -9.494189 0.814083 0.441124 -2.237945 -25.461746 5.912105 -138.412983 -65.065680 133.311172 -8.351444 -28.412099 29.239375 -0.614579 -43.204860 1.937457 -145.464229 84.469275 -141.285177 -0.075023 -11.679719 -1.045230 0.724713 -1.040549 0.334610 1.150316 -39.331637 6.614958 72.476762 83.856905 62.457192 -5.454785 -13.282535 9.939592 0.243277 1.487741 0.138191
-2.715002 52.156680 33.344195 169.944756 -38.383984 -1.899170 4.621412 23.673052 2.845533 0.561620 3.638668 0.510856 0.916079 5.810609 0.838509 3.584525 19.720406 3.345934 2.623154 15.193180 -0.670261 5.144641 -7.634072 -2.186015 -2.813316 -1.220349 -2.510799 8.362846 -24.074139 1.653398 122.013153 -68.632403 -111.820674 6.150268 -22.584557 -27.910999 -9.594494 0.826618 0.470782 -2.265786 -25.746521 6.006982 -137.928056 -65.103574 132.896655 -8.396964 -28.368367 29.292744 -0.596778 -43.184449 1.947019 -145.693506 84.471577 -141.505586 -0.080011 -11.676618 -1.051332 0.719899 -1.041403 0.329944 1.164090 -39.306554 6.616908 72.616119 83.856786 62.611108 -5.477955 -13.288953 9.916948 0.267553 1.495828 0.146997
-2.717794 52.149769 33.341841 169.908437 -38.407818 -1.879938 4.656030 23.718357 2.854545 0.564843 3.648593 0.509310 0.931018 5.872530 0.837447 3.605320 19.765862 3.341001 2.614186 15.188767 -0.681165 5.127117 -7.648660 -2.210518 -2.748388 -1.228572 -2.460914 8.519109 -24.432699 1.577719 121.103738 -68.813682 -111.062544 6.119457 -22.438358 -27.898627 -9.689708 0.851708 0.495120 -2.272813 -26.019985 6.098146 -137.555747 -65.140786 132.565600 -8.421028 -28.337139 29.329601 -0.575645 -43.177886 1.949033 -145.990265 84.474947 -141.799626 -0.076082 -11.655837 -1.065121 0.713916 -1.052823 0.328250 1.190665 -39.292002 6.590346 72.838533 83.836320 62.855214 -5.469073 -13.293003 9.896746 0.268810 1.496640 0.141974
-2.720953 52.145969 33.336653 169.856866 -38.450765 -1.847835 4.707569 23.799745 2.859089 0.565197 3.639090 0.510497 0.946993 5.927679 0.832913 3.628077 19.805834 3.336375 2.608186 15.190283 -0.686159 5.110021 -7.647262 -2.224975 -2.684794 -1.230795 -2.407347 8.675078 -24.761236 1.497341 120.199809 -68.989979 -110.311728 6.098984 -22.308790 -27.902052 -9.780877 0.886987 0.516451 -2.264679 -26.284209 6.179878 -137.292924 -65.184880 132.318308 -8.398666 -28.318462 29.347226 -0.539340 -43.144180 1.950542 -146.291222 84.486813 -142.098359 -0.095779 -11.653776 -1.074758 0.715269 -1.049904 0.327697 1.230898 -39.254769 6.556627 73.068492 83.805487 63.108085 -5.462416 -13.283434 9.881255 0.268806 1.483294 0.130188
-2.723091 52.141946 33.333815 169.798140 -38.475911 -1.820347 4.770505 23.859064 2.871215 0.570804 3.658222 0.510476 0.958201 5.950392 0.827182 3.653802 19.841327 3.333053 2.603633 15.196760 -0.685368 5.112807 -7.534543 -2.237661 -2.623746 -1.224979 -2.352679 8.826809 -25.063199 1.419827 119.313172 -69.158931 -109.582024 6.090350 -22.208203 -27.916213 -9.867921 0.927650 0.537838 -2.249996 -26.537204 6.244822 -137.125287 -65.236807 132.147447 -8.401148 -28.292182 29.354239 -0.508565 -43.129124 1.969722 -146.513318 84.494900 -142.324301 -0.086843 -11.663371 -1.069728 0.690820 -1.033754 0.312867 1.275634 -39.237160 6.497630 73.336591 83.736815 63.415753 -5.378422 -13.269767 9.868042 0.184872 1.459764 0.087373
-2.726375 52.138182 33.332581 169.770138 -38.484661 -1.806034 4.804947 23.902984 2.867600 0.600300 3.722858 0.499781 0.954810 5.922822 0.839805 3.682227 19.874126 3.332368 2.596923 15.207521 -0.679685 5.103345 -7.480768 -2.227810 -2.569924 -1.216285 -2.302211 8.964712 -25.339350 1.356283 118.451967 -69.311964 -108.874808 6.086584 -22.142519 -27.937390 -9.947019 0.967454 0.556292 -2.237934 -26.729987 6.292498 -137.103792 -65.268794 132.120356 -8.393067 -28.270786 29.348104 -0.498712 -43.128548 1.984516 -146.670223 84.505046 -142.487201 -0.098128 -11.648541 -1.078401 0.681479 -1.041074 0.318129 1.296218 -39.230571 6.462541 73.482664 83.698069 63.585386 -5.366856 -13.277723 9.853754 0.175863 1.470102 0.075954
-2.729447 52.136031 33.331622 169.747303 -38.489391 -1.794068 4.843453 23.936417 2.866041 0.608498 3.742023 0.502433 0.965549 5.946633 0.841099 3.711572 19.905260 3.333911 2.587795 15.220689 -0.670463 5.082295 -7.457119 -2.206735 -2.524481 -1.211741 -2.256909 9.084082 -25.588415 1.310742 117.630959 -69.442947 -108.195737 6.084105 -22.106251 -27.963318 -10.014632 0.999539 0.568697 -2.239386 -26.911426 6.337801 -137.079147 -65.308955 132.086863 -8.342401 -28.275900 29.344556 -0.494851 -43.132610 1.999879 -146.806901 84.515345 -142.631292 -0.103198 -11.617487 -1.100782 0.674269 -1.055542 0.332085 1.309654 -39.225863 6.429745 73.590785 83.662122 63.704800 -5.331620 -13.282276 9.853216 0.140677 1.475014 0.055835
-2.728896 52.135880 33.331049 169.718667 -38.494035 -1.796563 4.912336 23.997175 2.886943 0.600744 3.731030 0.509895 0.968295 5.952387 0.844246 3.747188 19.951367 3.334481 2.578740 15.236107 -0.657933 5.060106 -7.429467 -2.179275 -2.484700 -1.210950 -2.214133 9.182496 -25.806060 1.282329 116.875304 -69.551981 -107.564629 6.084392 -22.085114 -27.985585 -10.072608 1.023542 0.575043 -2.264812 -27.167691 6.339182 -136.976892 -65.412337 131.965729 -8.328480 -28.278819 29.320876 -0.505685 -43.132075 2.046093 -146.909416 84.530565 -142.743202 -0.115926 -11.589843 -1.109350 0.684113 -1.052696 0.326686 1.311131 -39.221997 6.423253 73.719840 83.630912 63.860246 -5.328089 -13.292410 9.828267 0.142340 1.486392 0.053061
-2.724426 52.138760 33.329152 169.671580 -38.511115 -1.804828 4.989441 24.050379 2.927576 0.603751 3.736246 0.513327 0.956101 5.923547 0.849839 3.795565 20.028963 3.333048 2.569994 15.254141 -0.642542 5.037449 -7.397101 -2.146469 -2.451617 -1.210768 -2.174740 9.259025 -25.991447 1.270477 116.191716 -69.644914 -106.986028 6.083053 -22.066970 -27.995610 -10.124140 1.043166 0.573531 -2.290790 -27.349145 6.330672 -136.972551 -65.465588 131.965449 -8.321910 -28.288110 29.292674 -0.518762 -43.116817 2.120839 -146.912630 84.544636 -142.757123 -0.124336 -11.558033 -1.110581 0.680356 -1.062075 0.320097 1.301219 -39.205386 6.437010 73.857414 83.608486 64.041142 -5.328638 -13.308941 9.775119 0.183705 1.499920 0.060713
